<svg width="195" height="290" viewBox="0 0 389 580" fill="none" xmlns="http://www.w3.org/2000/svg">
<path d="M111.002 233.62L83.814 262.73C83.814 262.73 -5.44202 167.217 65.63 87.69H113.316C80.425 162.107 111.002 233.62 111.002 233.62Z" fill="#66B3ED"/>
<path d="M185.398 152.121C185.398 152.121 120.149 227.951 118.302 228.642C106.613 181.661 108.094 134.672 122.707 87.691H186.213C185.775 107.857 185.504 131.963 185.398 152.121Z" fill="#66B3ED"/>
<path d="M273.84 233.62L301.025 262.73C301.025 262.73 390.282 167.217 319.211 87.69H271.523C304.417 162.107 273.84 233.62 273.84 233.62Z" fill="#66B3ED"/>
<path d="M199.441 152.121C199.441 152.121 264.692 227.951 266.535 228.642C278.224 181.661 276.747 134.672 262.134 87.691H198.626C199.063 107.857 199.336 131.963 199.441 152.121Z" fill="#66B3ED"/>
<path d="M175.775 304.518C171.2 305.344 167.027 306.383 163.145 307.652C153.055 310.929 143.151 316.173 134.489 322.84C131.473 325.123 128.776 327.373 126.39 329.363L125.122 330.419C123.23 331.977 121.267 333.577 120.184 334.256L119.983 334.39C119.634 334.608 119.334 334.763 118.336 335.052C118.049 335.14 116.922 335.429 114.772 335.554C113.993 335.6 113.228 335.63 112.476 335.63C111.396 335.63 110.773 335.572 110.354 335.501C109.922 335.441 109.417 335.329 108.536 334.968C106.213 333.263 103.673 331.646 100.828 330.242C97.682 322.333 95.604 313.902 94.737 305.13C93.811 295.805 94.332 287.157 97.348 280.659C104.221 265.849 134.564 239.967 161.426 211.573C167.562 230.18 172.556 268.275 175.775 304.518Z" fill="#357FC2"/>
<path d="M290.103 305.129C289.252 313.789 287.216 322.09 284.157 329.898C280.705 331.544 277.659 333.494 274.957 335.553C274.815 335.541 274.673 335.541 274.539 335.529C272.26 335.395 271.139 335.111 270.848 335.021L270.602 334.951C269.898 334.749 269.604 334.607 269.203 334.343L269.073 334.273C267.845 333.495 265.767 331.794 264.075 330.403L262.776 329.338C260.38 327.327 257.669 325.065 254.74 322.841C246.006 316.142 236.073 310.888 225.984 307.629C221.091 306.053 215.979 304.872 210.363 303.988L210.062 303.945L208.559 303.757C211.823 267.396 216.834 229.432 223.008 211.128C249.96 239.693 280.59 265.779 287.494 280.66C290.509 287.156 291.027 295.804 290.103 305.129Z" fill="#357FC2"/>
<path d="M219.514 200.976C218.835 202.205 218.173 203.631 217.536 205.236C209.511 225.212 204.183 272.387 201.457 303.035C199.088 302.876 196.894 302.8 194.744 302.8H194.44C191.987 302.817 189.46 302.918 187.092 303.076C185.561 303.177 184.148 303.32 182.849 303.466C180.149 273.051 174.867 226.007 166.911 205.684C166.204 203.894 165.497 202.32 164.745 200.977L192.044 163.606L192.087 163.416L192.13 163.49L192.173 163.416L192.216 163.606L219.514 200.976Z" fill="#1F6BA3"/>
<path d="M307.124 65.993H207.212V56.415H212.665L215.593 33.242H194.097V19.585C198.23 20.215 202.363 17.589 206.493 14.955C210.839 12.185 215.181 9.419 219.53 10.44C215.18 6.409 210.839 6.16799 206.493 5.92599C202.362 5.69699 198.229 5.46101 194.097 1.96901V0H190.745V33.241H169.247L172.175 56.414H177.629V65.992H77.717C75.081 65.992 72.947 68.127 72.947 70.763C72.947 73.396 75.081 75.533 77.717 75.533H307.124C309.755 75.533 311.893 73.396 311.893 70.763C311.893 68.128 309.755 65.993 307.124 65.993Z" fill="#1F6BA3"/>
<path d="M212.665 56.415H172.175L169.247 33.242H215.593L212.665 56.415Z" fill="#357FC2"/>
<path d="M194.097 19.585C198.23 20.215 202.363 17.589 206.493 14.955C210.839 12.185 215.181 9.419 219.53 10.44C215.18 6.409 210.839 6.16799 206.493 5.92599C202.362 5.69699 198.229 5.46101 194.097 1.96901V0V19.585Z" fill="#66B3ED"/>
<path d="M329.907 321.374C322.348 322.503 314.892 325.404 308.179 329.176C301.463 332.939 295.543 337.454 290.106 339.96C287.357 341.209 284.827 342.005 282.045 342.414C279.288 342.837 276.364 342.851 273.289 342.69C270.188 342.514 267.26 342.086 264.685 341.326C262.071 340.579 259.849 339.608 257.57 338.158C255.279 336.72 252.912 334.798 250.272 332.636C247.659 330.466 244.729 327.965 241.557 325.56C235.211 320.696 227.481 316.407 219.358 313.78C215.29 312.477 211.149 311.563 207.024 310.923L203.941 310.53C203.433 310.467 202.921 310.399 202.32 310.349L200.75 310.222C198.686 310.08 196.627 309.997 194.575 310C192.522 310.014 190.479 310.093 188.444 310.231C186.247 310.369 184.185 310.67 182.147 310.926C178.025 311.578 173.876 312.467 169.815 313.8C161.7 316.421 153.961 320.699 147.63 325.58C144.455 327.985 141.526 330.481 138.91 332.656C136.27 334.818 133.91 336.753 131.611 338.181C129.33 339.639 127.105 340.599 124.489 341.357C121.91 342.121 118.98 342.546 115.877 342.723C112.8 342.878 109.873 342.878 107.116 342.446C104.331 342.028 101.797 341.24 99.047 339.992C93.607 337.474 87.685 332.962 80.976 329.199C74.268 325.429 66.81 322.521 59.259 321.389C51.72 320.161 44.191 320.431 37 321.7C44.19 323.058 51.131 324.863 57.426 327.687C63.752 330.472 69.284 334.24 74.375 338.702C76.937 340.93 79.447 343.318 82.108 345.832C84.781 348.354 87.73 350.935 91.199 353.34C94.643 355.756 98.817 357.798 103.039 359.064C107.281 360.357 111.569 361.041 115.686 361.267C119.78 361.51 124.078 361.458 128.552 360.73C132.987 360.032 137.595 358.469 141.611 356.427C145.632 354.396 149.106 352.067 152.162 349.833C155.238 347.592 157.933 345.59 160.629 343.812C165.966 340.281 171.085 337.646 176.766 336.075C179.585 335.266 182.491 334.629 185.491 334.211C187.023 334.047 188.53 333.834 189.932 333.774C191.49 333.687 193.045 333.649 194.595 333.657C196.144 333.657 197.687 333.682 199.214 333.774L200.336 333.85C200.633 333.867 201.015 333.908 201.399 333.959L203.678 334.213C206.673 334.638 209.583 335.261 212.396 336.091C218.072 337.67 223.199 340.285 228.524 343.836C231.218 345.608 233.916 347.612 236.991 349.854C240.049 352.083 243.513 354.428 247.539 356.457C251.563 358.501 256.175 360.051 260.608 360.763C265.086 361.493 269.383 361.542 273.481 361.3C277.599 361.071 281.894 360.4 286.134 359.096C290.356 357.823 294.537 355.794 297.985 353.373C304.961 348.514 309.645 343.101 314.81 338.727C319.896 334.261 325.422 330.499 331.748 327.708C338.041 324.877 344.978 323.066 352.167 321.7C344.98 320.425 337.447 320.153 329.907 321.374Z" fill="#1F6BA3"/>
<path d="M59.4239 453.679C54.9051 453.679 50.5292 452.992 46.2964 451.619C42.1208 450.189 38.8317 448.359 36.4293 446.128L39.6039 439.436C41.892 441.495 44.8092 443.182 48.3556 444.498C51.9592 445.756 55.6487 446.386 59.4239 446.386C64.4003 446.386 68.1184 445.556 70.578 443.897C73.0376 442.181 74.2674 439.922 74.2674 437.119C74.2674 435.06 73.581 433.401 72.2082 432.143C70.8926 430.827 69.2338 429.826 67.2318 429.14C65.2869 428.453 62.5127 427.681 58.9091 426.823C54.3903 425.736 50.7294 424.649 47.9266 423.563C45.181 422.476 42.8072 420.817 40.8051 418.586C38.8603 416.298 37.8879 413.238 37.8879 409.405C37.8879 406.202 38.7173 403.314 40.3761 400.74C42.0922 398.166 44.6662 396.106 48.0982 394.562C51.5302 393.017 55.7917 392.245 60.8825 392.245C64.4289 392.245 67.9182 392.703 71.3502 393.618C74.7822 394.533 77.728 395.849 80.1877 397.565L77.3562 404.429C74.8394 402.827 72.151 401.626 69.291 400.825C66.431 399.967 63.6281 399.538 60.8825 399.538C56.0205 399.538 52.3596 400.425 49.9 402.198C47.4976 403.971 46.2964 406.259 46.2964 409.062C46.2964 411.121 46.9828 412.809 48.3556 414.124C49.7284 415.383 51.4158 416.384 53.4179 417.127C55.4771 417.814 58.2513 418.558 61.7405 419.358C66.2594 420.445 69.8916 421.532 72.6372 422.619C75.3828 423.706 77.7281 425.364 79.6729 427.595C81.6749 429.826 82.6759 432.829 82.6759 436.604C82.6759 439.75 81.8179 442.639 80.1019 445.27C78.3859 447.844 75.7832 449.903 72.294 451.448C68.8048 452.935 64.5147 453.679 59.4239 453.679ZM138.798 445.528V452.992H95.2108V392.932H137.596V400.396H103.791V418.844H133.907V426.137H103.791V445.528H138.798ZM190.958 437.977H159.04L152.433 452.992H143.596L170.795 392.932H179.289L206.573 452.992H197.564L190.958 437.977ZM187.955 431.113L174.999 401.683L162.043 431.113H187.955ZM265.688 453.679C259.625 453.679 254.162 452.363 249.3 449.732C244.438 447.043 240.606 443.354 237.803 438.663C235.057 433.973 233.684 428.739 233.684 422.962C233.684 417.185 235.057 411.951 237.803 407.26C240.606 402.57 244.438 398.909 249.3 396.278C254.162 393.59 259.625 392.245 265.688 392.245C271.694 392.245 277.128 393.59 281.99 396.278C286.852 398.909 290.656 402.57 293.402 407.26C296.147 411.894 297.52 417.127 297.52 422.962C297.52 428.796 296.147 434.059 293.402 438.749C290.656 443.383 286.852 447.043 281.99 449.732C277.128 452.363 271.694 453.679 265.688 453.679ZM265.688 446.042C270.093 446.042 274.039 445.041 277.529 443.039C281.075 441.037 283.849 438.292 285.851 434.802C287.91 431.256 288.94 427.309 288.94 422.962C288.94 418.615 287.91 414.696 285.851 411.207C283.849 407.661 281.075 404.887 277.529 402.885C274.039 400.883 270.093 399.882 265.688 399.882C261.284 399.882 257.28 400.883 253.676 402.885C250.13 404.887 247.327 407.661 245.268 411.207C243.266 414.696 242.265 418.615 242.265 422.962C242.265 427.309 243.266 431.256 245.268 434.802C247.327 438.292 250.13 441.037 253.676 443.039C257.28 445.041 261.284 446.042 265.688 446.042ZM319.214 400.396V421.332H349.33V428.711H319.214V452.992H310.634V392.932H353.02V400.396H319.214Z" fill="#66B3ED"/>
<path d="M49.9061 526.847C53.3953 527.819 56.1409 529.592 58.1429 532.166C60.1449 534.683 61.1459 537.886 61.1459 541.776C61.1459 546.981 59.1725 550.985 55.2257 553.788C51.3361 556.591 45.6446 557.992 38.1514 557.992H9.49392V497.932H36.4353C43.2994 497.932 48.5904 499.305 52.3085 502.05C56.0837 504.796 57.9713 508.6 57.9713 513.462C57.9713 516.608 57.2277 519.325 55.7405 521.613C54.3105 523.901 52.3657 525.645 49.9061 526.847ZM18.074 504.882V524.101H35.6631C40.0676 524.101 43.4424 523.3 45.7876 521.698C48.19 520.04 49.3912 517.637 49.3912 514.491C49.3912 511.345 48.19 508.971 45.7876 507.37C43.4424 505.711 40.0676 504.882 35.6631 504.882H18.074ZM37.8082 551.042C42.6702 551.042 46.331 550.242 48.7906 548.64C51.2503 547.038 52.4801 544.521 52.4801 541.089C52.4801 534.397 47.5894 531.051 37.8082 531.051H18.074V551.042H37.8082ZM112.698 542.977H80.7802L74.1736 557.992H65.3361L92.5349 497.932H101.029L128.314 557.992H119.305L112.698 542.977ZM109.695 536.113L96.7392 506.683L83.7832 536.113H109.695ZM146.183 505.396H125.591V497.932H175.27V505.396H154.677V557.992H146.183V505.396ZM197.379 505.396H176.787V497.932H226.465V505.396H205.873V557.992H197.379V505.396ZM235.81 497.932H244.39V550.528H276.909V557.992H235.81V497.932ZM330.341 550.528V557.992H286.754V497.932H329.14V505.396H295.334V523.844H325.45V531.137H295.334V550.528H330.341ZM361.737 558.679C357.218 558.679 352.843 557.992 348.61 556.619C344.434 555.189 341.145 553.359 338.743 551.128L341.917 544.436C344.205 546.495 347.123 548.182 350.669 549.498C354.273 550.756 357.962 551.386 361.737 551.386C366.714 551.386 370.432 550.556 372.891 548.897C375.351 547.181 376.581 544.922 376.581 542.119C376.581 540.06 375.894 538.401 374.522 537.143C373.206 535.827 371.547 534.826 369.545 534.14C367.6 533.453 364.826 532.681 361.222 531.823C356.704 530.736 353.043 529.649 350.24 528.563C347.494 527.476 345.121 525.817 343.119 523.586C341.174 521.298 340.201 518.238 340.201 514.405C340.201 511.202 341.031 508.314 342.69 505.74C344.406 503.166 346.98 501.106 350.412 499.562C353.844 498.017 358.105 497.245 363.196 497.245C366.742 497.245 370.232 497.703 373.664 498.618C377.096 499.533 380.041 500.849 382.501 502.565L379.67 509.429C377.153 507.827 374.464 506.626 371.604 505.825C368.744 504.967 365.942 504.538 363.196 504.538C358.334 504.538 354.673 505.425 352.213 507.198C349.811 508.971 348.61 511.259 348.61 514.062C348.61 516.121 349.296 517.809 350.669 519.124C352.042 520.383 353.729 521.384 355.731 522.127C357.79 522.814 360.565 523.558 364.054 524.358C368.573 525.445 372.205 526.532 374.951 527.619C377.696 528.706 380.041 530.364 381.986 532.595C383.988 534.826 384.989 537.829 384.989 541.604C384.989 544.75 384.131 547.639 382.415 550.27C380.699 552.844 378.097 554.903 374.607 556.448C371.118 557.935 366.828 558.679 361.737 558.679Z" fill="#1F6BA3"/>
</svg>
