<svg xmlns="http://www.w3.org/2000/svg" viewBox="0 0 335.73 389.4"><defs><style>.cls-1{fill:#4980b2;}.cls-2{fill:#4d4d4d;}</style></defs><g id="Camada_2" data-name="Camada 2"><g id="Object"><path class="cls-1" d="M78.83,251.7l-29,31.36S-45.21,180.16,30.5,94.48H81.3C46.26,174.65,78.83,251.7,78.83,251.7Z"/><path class="cls-1" d="M158.08,163.89s-69.5,81.7-71.47,82.44Q67.94,170.42,91.3,94.48H159C158.48,116.2,158.2,142.17,158.08,163.89Z"/><path class="cls-1" d="M252.3,251.7l29,31.36s95.08-102.9,19.37-188.58h-50.8C284.87,174.65,252.3,251.7,252.3,251.7Z"/><path class="cls-1" d="M173,163.89s69.51,81.7,71.47,82.44q18.69-75.92-4.68-151.85H172.17C172.64,116.2,172.93,142.17,173,163.89Z"/><path class="cls-2" d="M147.83,328.08a99.27,99.27,0,0,0-13.45,3.38,102.36,102.36,0,0,0-30.53,16.36c-3.21,2.46-6.08,4.88-8.63,7L93.87,356c-2,1.67-4.1,3.4-5.26,4.13l-.21.14a5.64,5.64,0,0,1-1.76.72,18,18,0,0,1-3.79.54c-.83.05-1.65.08-2.45.08a13.17,13.17,0,0,1-2.26-.14,7.24,7.24,0,0,1-1.94-.57,55,55,0,0,0-8.21-5.1,100.83,100.83,0,0,1-6.49-27.05c-1-10.05-.43-19.36,2.79-26.37,7.32-15.95,39.64-43.84,68.26-74.43C139.08,248,144.4,289,147.83,328.08Z"/><path class="cls-2" d="M269.62,328.74a100.76,100.76,0,0,1-6.33,26.68,55.51,55.51,0,0,0-9.8,6.1l-.45,0a17.45,17.45,0,0,1-3.93-.55l-.26-.07a4.45,4.45,0,0,1-1.49-.66l-.14-.07c-1.31-.84-3.52-2.67-5.33-4.17l-1.38-1.15c-2.55-2.17-5.44-4.6-8.56-7a102.56,102.56,0,0,0-30.63-16.39,107.83,107.83,0,0,0-16.64-3.92l-.32-.05-1.61-.2c3.48-39.17,8.82-80.08,15.4-99.8,28.71,30.78,61.34,58.88,68.69,74.92C270.05,309.37,270.6,318.69,269.62,328.74Z"/><path class="cls-2" d="M194.42,216.53a41,41,0,0,0-2.1,4.59c-8.55,21.52-14.23,72.34-17.13,105.36-2.52-.17-4.86-.25-7.15-.25h-.33c-2.61,0-5.3.13-7.82.3-1.63.11-3.14.26-4.52.42-2.88-32.77-8.51-83.46-17-105.35a41.52,41.52,0,0,0-2.31-5.07l29.08-40.26.05-.21,0,.08.05-.08,0,.21Z"/><path class="cls-2" d="M287.75,71.1H181.32V60.78h5.81l3.12-25h-22.9V21.1c4.4.68,8.8-2.15,13.2-5,4.63-3,9.26-6,13.89-4.86-4.63-4.35-9.26-4.6-13.89-4.87-4.4-.24-8.8-.5-13.2-4.26V0h-3.57V35.81h-22.9l3.12,25h5.81V71.1H43.37a5.14,5.14,0,0,0,0,10.28H287.75a5.14,5.14,0,0,0,0-10.28Z"/><path class="cls-1" d="M187.13,60.78H144l-3.12-25h49.37Z"/><path class="cls-1" d="M167.35,21.1c4.4.68,8.8-2.15,13.2-5,4.63-3,9.26-6,13.89-4.86-4.63-4.35-9.26-4.6-13.89-4.87-4.4-.24-8.8-.5-13.2-4.26v19Z"/><path class="cls-1" d="M312,346.24a68.23,68.23,0,0,0-23.14,8.41c-7.16,4.05-13.46,8.91-19.26,11.61a30.65,30.65,0,0,1-8.58,2.65,46.17,46.17,0,0,1-9.33.3,41.19,41.19,0,0,1-9.17-1.47,27.71,27.71,0,0,1-7.58-3.42,80.75,80.75,0,0,1-7.77-5.95c-2.78-2.33-5.9-5-9.28-7.62a80.13,80.13,0,0,0-23.65-12.69A85.08,85.08,0,0,0,181.12,335l-3.28-.42c-.55-.07-1.09-.14-1.73-.2l-1.67-.13c-2.2-.16-4.4-.25-6.58-.24s-4.36.1-6.53.25c-2.34.14-4.54.47-6.71.74a84,84,0,0,0-13.14,3.1,79.22,79.22,0,0,0-23.63,12.69c-3.38,2.59-6.5,5.28-9.29,7.63a80.75,80.75,0,0,1-7.77,6,27.93,27.93,0,0,1-7.59,3.42A40.62,40.62,0,0,1,84,369.24a44.76,44.76,0,0,1-9.33-.3,31.47,31.47,0,0,1-8.59-2.64c-5.8-2.71-12.11-7.58-19.25-11.63a68.44,68.44,0,0,0-23.14-8.41A69.79,69.79,0,0,0,0,346.59,96.51,96.51,0,0,1,21.76,353a69.94,69.94,0,0,1,18.05,11.87c2.73,2.4,5.41,5,8.24,7.68a82.43,82.43,0,0,0,9.69,8.09,44.84,44.84,0,0,0,12.61,6.17,56.45,56.45,0,0,0,13.47,2.37,61,61,0,0,0,13.71-.58A47.58,47.58,0,0,0,111.44,384a80.63,80.63,0,0,0,11.24-7.11c3.27-2.41,6.15-4.57,9-6.49a59.39,59.39,0,0,1,17.19-8.33,66.9,66.9,0,0,1,9.29-2c1.63-.18,3.24-.41,4.73-.47,1.66-.09,3.32-.13,5-.13s3.29,0,4.92.13l1.2.08c.31,0,.72.06,1.13.12l2.43.27a63.74,63.74,0,0,1,9.28,2A58.75,58.75,0,0,1,204,370.44c2.87,1.91,5.75,4.07,9,6.48A80.06,80.06,0,0,0,224.28,384a48.36,48.36,0,0,0,13.92,4.64,61.59,61.59,0,0,0,13.71.58,55.89,55.89,0,0,0,13.48-2.38A45.2,45.2,0,0,0,278,380.72c7.43-5.24,12.42-11.07,17.92-15.78a69.92,69.92,0,0,1,18-11.88,96.61,96.61,0,0,1,21.75-6.47A70,70,0,0,0,312,346.24Z"/></g></g></svg>