<svg xmlns="http://www.w3.org/2000/svg" viewBox="0 0 400 600"><defs><style>.cls-1{fill:#4980b2;}.cls-2{fill:#4d4d4d;}</style></defs><g id="Camada_2" data-name="Camada 2"><g id="Object"><path class="cls-1" d="M111,251.7,82,283.06S-13.08,180.16,62.63,94.48h50.8C78.39,174.65,111,251.7,111,251.7Z"/><path class="cls-1" d="M190.22,163.89s-69.51,81.7-71.48,82.44q-18.67-75.92,4.69-151.85h67.65C190.62,116.2,190.33,142.17,190.22,163.89Z"/><path class="cls-1" d="M284.43,251.7l29,31.36s95.08-102.9,19.37-188.58H282C317,174.65,284.43,251.7,284.43,251.7Z"/><path class="cls-1" d="M205.17,163.89s69.51,81.7,71.48,82.44Q295.33,170.42,272,94.48H204.31C204.77,116.2,205.06,142.17,205.17,163.89Z"/><path class="cls-2" d="M180,328.08a99.65,99.65,0,0,0-13.45,3.38A102.36,102.36,0,0,0,136,347.82c-3.21,2.46-6.08,4.88-8.62,7L126,356c-2,1.67-4.11,3.4-5.26,4.13l-.22.14a5.66,5.66,0,0,1-1.75.72,18.33,18.33,0,0,1-3.8.54c-.83.05-1.64.08-2.45.08a13.17,13.17,0,0,1-2.26-.14,7.2,7.2,0,0,1-1.93-.57,55.48,55.48,0,0,0-8.21-5.1,100.08,100.08,0,0,1-6.49-27.05c-1-10.05-.43-19.36,2.78-26.37,7.32-15.95,39.64-43.84,68.26-74.43C171.22,248,176.53,289,180,328.08Z"/><path class="cls-2" d="M301.75,328.74a100.37,100.37,0,0,1-6.33,26.68,55.88,55.88,0,0,0-9.8,6.1l-.45,0a17.57,17.57,0,0,1-3.93-.55l-.26-.07a4.54,4.54,0,0,1-1.49-.66l-.14-.07c-1.31-.84-3.52-2.67-5.32-4.17l-1.39-1.15c-2.55-2.17-5.44-4.6-8.56-7a102.44,102.44,0,0,0-30.63-16.39,107.56,107.56,0,0,0-16.64-3.92l-.32-.05-1.6-.2c3.47-39.17,8.81-80.08,15.39-99.8C259,258.24,291.62,286.34,299,302.38,302.19,309.37,302.74,318.69,301.75,328.74Z"/><path class="cls-2" d="M226.56,216.53a39.19,39.19,0,0,0-2.11,4.59c-8.55,21.52-14.22,72.34-17.13,105.36-2.52-.17-4.86-.25-7.15-.25h-.32c-2.62,0-5.31.13-7.83.3-1.63.11-3.14.26-4.52.42-2.88-32.77-8.5-83.46-17-105.35a40.06,40.06,0,0,0-2.31-5.07l29.08-40.26.05-.21,0,.08,0-.08,0,.21Z"/><path class="cls-2" d="M319.88,71.1H213.45V60.78h5.81l3.12-25h-22.9V21.1c4.4.68,8.81-2.15,13.21-5,4.63-3,9.25-6,13.88-4.86-4.63-4.35-9.25-4.6-13.88-4.87-4.4-.24-8.81-.5-13.21-4.26V0h-3.57V35.81H173l3.12,25h5.81V71.1H75.51a5.14,5.14,0,0,0,0,10.28H319.88a5.14,5.14,0,0,0,0-10.28Z"/><path class="cls-1" d="M219.26,60.78H176.13l-3.12-25h49.37Z"/><path class="cls-1" d="M199.48,21.1c4.4.68,8.81-2.15,13.21-5,4.63-3,9.25-6,13.88-4.86-4.63-4.35-9.25-4.6-13.88-4.87-4.4-.24-8.81-.5-13.21-4.26v19Z"/><path class="cls-1" d="M344.15,346.24A68.23,68.23,0,0,0,321,354.65c-7.16,4.05-13.46,8.91-19.25,11.61a30.82,30.82,0,0,1-8.59,2.65,46.15,46.15,0,0,1-9.33.3,41,41,0,0,1-9.16-1.47,27.44,27.44,0,0,1-7.58-3.42,82,82,0,0,1-7.78-5.95c-2.78-2.33-5.9-5-9.28-7.62a80.13,80.13,0,0,0-23.65-12.69A84.81,84.81,0,0,0,213.25,335l-3.28-.42c-.54-.07-1.09-.14-1.73-.2l-1.67-.13c-2.2-.16-4.39-.25-6.58-.24s-4.36.1-6.53.25c-2.34.14-4.54.47-6.71.74a83.64,83.64,0,0,0-13.13,3.1A79.27,79.27,0,0,0,150,350.77c-3.38,2.59-6.5,5.28-9.29,7.63a79.54,79.54,0,0,1-7.77,6,27.93,27.93,0,0,1-7.59,3.42,40.62,40.62,0,0,1-9.17,1.47,44.83,44.83,0,0,1-9.34-.3,31.47,31.47,0,0,1-8.59-2.64c-5.8-2.71-12.1-7.58-19.25-11.63a68.44,68.44,0,0,0-23.14-8.41,69.79,69.79,0,0,0-23.71.33A96.36,96.36,0,0,1,53.89,353,70.17,70.17,0,0,1,72,364.91c2.73,2.4,5.4,5,8.23,7.68a82.43,82.43,0,0,0,9.69,8.09,45,45,0,0,0,12.61,6.17A56.45,56.45,0,0,0,116,389.22a61,61,0,0,0,13.71-.58A47.58,47.58,0,0,0,143.57,384a80.63,80.63,0,0,0,11.24-7.11c3.28-2.41,6.15-4.57,9-6.49A59.39,59.39,0,0,1,181,362.08a66.9,66.9,0,0,1,9.29-2c1.64-.18,3.24-.41,4.73-.47,1.66-.09,3.32-.13,5-.13s3.3,0,4.92.13l1.2.08c.31,0,.72.06,1.13.12l2.43.27a63.74,63.74,0,0,1,9.28,2,58.92,58.92,0,0,1,17.19,8.34c2.87,1.91,5.74,4.07,9,6.48A79.35,79.35,0,0,0,256.41,384a48.36,48.36,0,0,0,13.92,4.64,61.65,61.65,0,0,0,13.72.58,56.06,56.06,0,0,0,13.48-2.38,45.14,45.14,0,0,0,12.62-6.16c7.43-5.24,12.42-11.07,17.92-15.78a70,70,0,0,1,18.05-11.88,96.3,96.3,0,0,1,21.75-6.47A70.09,70.09,0,0,0,344.15,346.24Z"/><path class="cls-2" d="M55.87,504.48a44.51,44.51,0,0,1-14-2.22,29.12,29.12,0,0,1-10.52-5.91l3.39-7.21a28.5,28.5,0,0,0,9.32,5.45,35.06,35.06,0,0,0,11.79,2q8,0,11.88-2.68a8.54,8.54,0,0,0,3.93-7.3,7,7,0,0,0-2.19-5.36,13.55,13.55,0,0,0-5.3-3.24,90.91,90.91,0,0,0-8.87-2.49A94.11,94.11,0,0,1,43.62,472,20,20,0,0,1,36,466.67q-3.12-3.69-3.11-9.89a17,17,0,0,1,2.65-9.33,18.84,18.84,0,0,1,8.22-6.66,32.94,32.94,0,0,1,13.62-2.5,42.84,42.84,0,0,1,11.15,1.48A29.57,29.57,0,0,1,78,444l-3,7.39a31.81,31.81,0,0,0-8.59-3.88,30.58,30.58,0,0,0-9-1.39q-7.77,0-11.7,2.87a8.82,8.82,0,0,0-3.83,7.39,7.29,7.29,0,0,0,2.19,5.46,16.26,16.26,0,0,0,5.39,3.23c2.2.74,5.15,1.54,8.87,2.41A89.12,89.12,0,0,1,70,471a19.2,19.2,0,0,1,7.49,5.36q3.19,3.6,3.2,9.71a16.91,16.91,0,0,1-2.74,9.33,18.82,18.82,0,0,1-8.32,6.66A34.71,34.71,0,0,1,55.87,504.48Zm84.55-8.78v8H94V439h45.15v8.05h-36V467h32.08v7.86H103.13V495.7ZM196,487.57H162l-7,16.17h-9.42l29-64.71h9.05l29.06,64.71H203Zm-3.2-7.4L179,448.46l-13.8,31.71Zm82.8,24.31a35.8,35.8,0,0,1-17.45-4.25,32.27,32.27,0,0,1-12.25-11.93,34.78,34.78,0,0,1,0-33.83,31.59,31.59,0,0,1,12.25-11.83,37,37,0,0,1,34.82,0,31,31,0,0,1,12.16,11.83,32.87,32.87,0,0,1,4.38,16.92,33.41,33.41,0,0,1-4.38,17A31.85,31.85,0,0,1,293,500.23,35.63,35.63,0,0,1,275.59,504.48Zm0-8.23A24.64,24.64,0,0,0,288.21,493a23.25,23.25,0,0,0,8.86-8.88,25.08,25.08,0,0,0,3.29-12.75,24.63,24.63,0,0,0-3.29-12.67,23,23,0,0,0-8.86-9,24.65,24.65,0,0,0-12.62-3.24,25.63,25.63,0,0,0-12.79,3.24,23.72,23.72,0,0,0-9,9,25.27,25.27,0,0,0-3.2,12.67,25.73,25.73,0,0,0,3.2,12.75,24,24,0,0,0,9,8.88A25.62,25.62,0,0,0,275.59,496.25Zm57-49.17v22.55h32.08v7.95H332.61v26.16h-9.14V439h45.16v8.05Z"/><path class="cls-2" d="M43.05,565.7a15.73,15.73,0,0,1,12,16.09q0,8.41-6.3,12.94t-18.19,4.53H0V534.55H28.7q11,0,16.91,4.44a14.42,14.42,0,0,1,6,12.29,15.88,15.88,0,0,1-2.38,8.79A14.89,14.89,0,0,1,43.05,565.7ZM9.14,542v20.71H27.88q7,0,10.78-2.59a8.89,8.89,0,0,0,3.84-7.77,8.65,8.65,0,0,0-3.84-7.67Q34.91,542,27.88,542Zm21,49.73q7.77,0,11.7-2.59t3.93-8.13q0-10.81-15.63-10.82h-21v21.54Zm79.78-8.69h-34l-7,16.18H59.49l29-64.71h9.05l29.06,64.71H117Zm-3.2-7.39L92.94,544l-13.8,31.71Zm38.87-33.1H123.67v-8h52.92v8H154.66v56.67h-9Zm54.54,0H178.21v-8h52.92v8H209.19v56.67h-9Zm40.94-8h9.14v56.67h34.64v8H241.09Zm100.7,56.67v8H295.35V534.55h45.16v8h-36v19.88h32.09v7.86H304.49v20.89ZM375.23,600a44.55,44.55,0,0,1-14-2.22,28.84,28.84,0,0,1-10.51-5.92l3.38-7.21a28.51,28.51,0,0,0,9.32,5.46,35.31,35.31,0,0,0,11.79,2q7.95,0,11.88-2.68a8.54,8.54,0,0,0,3.93-7.3,7,7,0,0,0-2.19-5.36,13.55,13.55,0,0,0-5.3-3.24,90.91,90.91,0,0,0-8.87-2.49,95.65,95.65,0,0,1-11.7-3.52,19.84,19.84,0,0,1-7.58-5.36q-3.11-3.69-3.11-9.89a17,17,0,0,1,2.65-9.34,18.86,18.86,0,0,1,8.23-6.65,32.7,32.7,0,0,1,13.61-2.5,43,43,0,0,1,11.16,1.48,29.82,29.82,0,0,1,9.41,4.25l-3,7.4a31.51,31.51,0,0,0-8.59-3.88,30.58,30.58,0,0,0-9-1.39q-7.75,0-11.69,2.87a8.83,8.83,0,0,0-3.84,7.39,7.25,7.25,0,0,0,2.19,5.45,16.11,16.11,0,0,0,5.39,3.24c2.2.74,5.15,1.54,8.87,2.4a88.93,88.93,0,0,1,11.61,3.52,19.09,19.09,0,0,1,7.49,5.36q3.19,3.6,3.2,9.7a16.86,16.86,0,0,1-2.74,9.34,18.89,18.89,0,0,1-8.32,6.66A34.71,34.71,0,0,1,375.23,600Z"/></g></g></svg>