<svg xmlns="http://www.w3.org/2000/svg" viewBox="0 0 350 350"><defs><style>.cls-1{isolation:isolate;}.cls-2{fill:#a75627;}.cls-3{fill:#a76a45;}.cls-4{fill:#7e4206;opacity:0.2;mix-blend-mode:multiply;}.cls-5{fill:#444;}.cls-6{fill:#282828;}.cls-7{fill:#fb0709;}.cls-8{fill:#cecece;}.cls-9{fill:#bfbfbf;}</style></defs><g class="cls-1"><g id="DESIGNED_BY_FREEPIK" data-name="DESIGNED BY FREEPIK"><path class="cls-2" d="M225.21,235.86l.76,3.37s-2.29-3.67-7.95-3.83c0,0,5.66,4.44,2.14,6.42s-7.64-1.83-10.85-5.19a31,31,0,0,0-8.26-5.66l4.28-.77a29.82,29.82,0,0,0-8-1.22,10.1,10.1,0,0,1,6.41-1.53,30.36,30.36,0,0,0-13.14-2.75A14.25,14.25,0,0,0,179,230.2a14.25,14.25,0,0,0-11.63-5.5,30.36,30.36,0,0,0-13.14,2.75,10.1,10.1,0,0,1,6.41,1.53,29.82,29.82,0,0,0-7.95,1.22L157,231a30.84,30.84,0,0,0-8.25,5.66c-3.22,3.36-7.34,7.18-10.86,5.19S140,235.4,140,235.4c-5.66.16-7.95,3.83-7.95,3.83l.76-3.37c-7.49,4.44-2,17.59,12.54,17.59s20.19-6.88,20.19-6.88L164,250.08c12.08-4.43,15-13.15,15-13.15s2.9,8.72,15,13.15l-1.53-3.51s5.66,6.88,20.19,6.88S232.7,240.3,225.21,235.86Z"/><path class="cls-3" d="M122.34,125.28s-13.78-.57-11.77,19.51,6.89,42.47,9.76,52.22c0,0,6.35-40.17,12.21-51.65S131.81,123.27,122.34,125.28Z"/><path class="cls-3" d="M233,108.06s19.93-.86,14.36,36.73c-3,20-9.41,39.88-12.28,49.64,0,0-4.53-40.17-12.11-55.66h0C215.17,123.56,223.49,106.05,233,108.06Z"/><path class="cls-2" d="M237.15,108.91s-6.59,62.65-67.76,67.84c0,0,9.79-5.5,16.21-11.31,0,0-23.55,9.17-49.55,11.31,0,0,9.49-15.08,11.63-25.58,0,0-14.07,12.13-31.51,13,0,0,.92-17.12,11.32-27.22,0,0-15.19-3.36-25.8,2.45,0,0,2.55-23.55,24.88-39.15,0,0-8.26.61-13.76,3.37,0,0,12.62-23.25,56.63-20.19A28.14,28.14,0,0,0,158.38,78s21-9.41,51.38.31C239.43,87.75,237.15,108.91,237.15,108.91Z"/><path class="cls-2" d="M148.29,149.38S138.5,161.77,125.83,168c0,0,20.93-4.66,30.1-20S148.29,149.38,148.29,149.38Z"/><path class="cls-3" d="M162,275.24s11-.61,15-7.65l1.37,3.83,2.3-5.05s9.21,8.87,17.17,9.48c0,0-.05,12.24-13.5,25.69l-.92-6.42-2.45,11-2-12.85-.61,8.57S163.54,290.84,162,275.24Z"/><path class="cls-4" d="M126.33,100.31l.24,0C128.25,99.15,127.94,99.31,126.33,100.31Z"/><path class="cls-4" d="M233.55,95.23c.54,20.66-12.62,45.44-35.41,57.36l7-11s-6.73,7.41-24.78,13.2l11.32-11.64s-21.36,8.39-37.93,11.64a116,116,0,0,0,8-18.76s-13.15,10.49-27,15.18c0,0,3.13-16.62,12.61-22.74,0,0-22.94-4.28-35.48,2.75,0,0,6.12-25.08,14.68-30.89-22.33,15.6-24.88,39.15-24.88,39.15,10.61-5.81,25.8-2.45,25.8-2.45-10.4,10.1-11.32,27.22-11.32,27.22,12.65-.66,23.52-7.22,28.54-10.78-4,4.17-10.83,10.6-18.88,14.53a60.74,60.74,0,0,0,19.26-8.7,130.29,130.29,0,0,1-9,17.49c26-2.14,49.55-11.31,49.55-11.31-6.42,5.81-16.21,11.31-16.21,11.31,61.17-5.19,67.76-67.84,67.76-67.84A24.41,24.41,0,0,0,233.55,95.23Z"/><path class="cls-4" d="M225.21,235.86l.76,3.37s.62,8.33-9.13,9.13-17.9-5.39-17.9-5.39,2.64,4.7,6,6c0,0-11.5-3.18-20.07-12.05A84.7,84.7,0,0,1,179,230.2a86.2,86.2,0,0,1-5.82,6.69c-8.57,8.87-20.07,12.05-20.07,12.05,3.33-1.27,6-6,6-6s-8.15,6.2-17.9,5.39-9.13-9.13-9.13-9.13l.76-3.37c-7.49,4.44-2,17.59,12.54,17.59s20.19-6.88,20.19-6.88L164,250.08c12.08-4.43,15-13.15,15-13.15s2.9,8.72,15,13.15l-1.53-3.51s5.66,6.88,20.19,6.88S232.7,240.3,225.21,235.86Z"/><path d="M279.18,101.72c0,25.07-46.65,53.94-104.18,53.94S70.82,126.79,70.82,101.72,117.46,56.31,175,56.31,279.18,76.64,279.18,101.72Z"/><path class="cls-5" d="M235.26,130.36l-8.84-71.6c-1.14-8.19-8.59-14.89-16.56-14.89H140.14c-8,0-15.42,6.7-16.56,14.89l-8.84,71.6Z"/><path class="cls-6" d="M235.26,130.36l-8.84-71.6a17.39,17.39,0,0,0-5.25-10.06,19.48,19.48,0,0,0-5.78-.42C203.46,49.16,193.45,62.7,175,62.7s-28.45-13.54-40.39-14.42a19.41,19.41,0,0,0-5.77.42,17.41,17.41,0,0,0-5.26,10.06l-8.84,71.6Z"/><polygon class="cls-7" points="115.68 122.68 234.32 122.68 231.35 98.63 118.66 98.63 115.68 122.68"/><polygon class="cls-7" points="231.97 103.64 231.35 98.63 118.66 98.63 118.04 103.64 231.97 103.64"/><path class="cls-8" d="M184.6,65.05a9.61,9.61,0,1,0-14.87,8V78.8h10.54V73.08A9.63,9.63,0,0,0,184.6,65.05Z"/><path class="cls-6" d="M173.35,64.48a2.3,2.3,0,1,1-2.3-2.3A2.3,2.3,0,0,1,173.35,64.48Z"/><path class="cls-6" d="M181.25,64.48a2.3,2.3,0,1,1-2.3-2.3A2.31,2.31,0,0,1,181.25,64.48Z"/><polygon class="cls-6" points="175 70.52 173.35 70.52 174.18 69.09 175 67.67 175.83 69.09 176.65 70.52 175 70.52"/><rect class="cls-6" x="171.66" y="73.12" width="6.68" height="1.97"/><path class="cls-8" d="M186.43,81.88a1.42,1.42,0,0,0,.49-1.83,1.52,1.52,0,0,0-2-.81,3.85,3.85,0,0,0-1.87,2.21l-17.45,7.31a3.86,3.86,0,0,0-2.89-.2,1.51,1.51,0,0,0-.81,2,1.43,1.43,0,0,0,1.65.94,1.41,1.41,0,0,0-.49,1.83,1.51,1.51,0,0,0,2,.8,3.8,3.8,0,0,0,1.87-2.2l17.45-7.32a3.8,3.8,0,0,0,2.88.21,1.51,1.51,0,0,0,.82-2A1.43,1.43,0,0,0,186.43,81.88Z"/><path class="cls-9" d="M163.57,81.88a1.42,1.42,0,0,1-.49-1.83,1.52,1.52,0,0,1,2-.81,3.82,3.82,0,0,1,1.87,2.21l17.45,7.31a3.84,3.84,0,0,1,2.88-.2,1.5,1.5,0,0,1,.82,2,1.43,1.43,0,0,1-1.65.94,1.41,1.41,0,0,1,.49,1.83,1.51,1.51,0,0,1-2,.8,3.8,3.8,0,0,1-1.87-2.2l-17.45-7.32a3.81,3.81,0,0,1-2.89.21,1.51,1.51,0,0,1-.81-2A1.42,1.42,0,0,1,163.57,81.88Z"/><path class="cls-6" d="M50,120.76c7.93-25.09,30.59-43.2,57.29-43.2,33.32,0,60.31,28.17,60.31,62.93,0,0-1.65,11,7.4,11v16.31s-37.74-7.85-69.44-19.93A347.89,347.89,0,0,1,50,120.76Z"/><path class="cls-6" d="M300,120.76c-7.93-25.09-30.58-43.2-57.29-43.2-33.31,0-60.32,28.17-60.32,62.93,0,0,1.66,11-7.39,11v16.31s37.74-7.85,69.45-19.93A348,348,0,0,0,300,120.76Z"/><path class="cls-5" d="M101.92,84.81c36,0,61.48,28.17,61.48,62.93,0,0,1.83,11,11.6,11V151.5c-9.05,0-7.4-11-7.4-11,0-34.76-27-62.93-60.31-62.93a58.87,58.87,0,0,0-43,18.86A66.26,66.26,0,0,1,101.92,84.81Z"/><path class="cls-5" d="M186.6,147.74c0-34.76,25.53-62.93,61.48-62.93a66.29,66.29,0,0,1,37.67,11.61,58.91,58.91,0,0,0-43-18.86c-33.31,0-60.32,28.17-60.32,62.93,0,0,1.66,11-7.39,11v7.25C184.77,158.75,186.6,147.74,186.6,147.74Z"/><path d="M52.36,114.49A66.26,66.26,0,0,0,50,120.76a347.89,347.89,0,0,0,55.56,27.12C137.26,160,175,167.81,175,167.81v-3.63s-40.74-11.47-74.95-23.55C80.15,133.61,63.13,122.53,52.36,114.49Z"/><path d="M250,140.63c-34.22,12.08-75,23.55-75,23.55v3.63s37.74-7.85,69.45-19.93A348,348,0,0,0,300,120.76a63.63,63.63,0,0,0-2.36-6.27C286.87,122.53,269.85,133.61,250,140.63Z"/></g></g></svg>