<svg xmlns="http://www.w3.org/2000/svg" viewBox="0 0 800 920"><defs><style>.cls-1{fill:none;}.cls-2{fill:#4682b4;}.cls-3{fill:#4d4d4d;}</style></defs><g id="Camada_2" data-name="Camada 2"><g id="Object"><path class="cls-1" d="M321.22,93.6c-123.05,0-222.83,99.21-222.83,221.64s99.78,221.64,222.83,221.64,222.84-99.22,222.84-221.64S444.3,93.6,321.22,93.6ZM215.67,397.14a15.21,15.21,0,0,1-9.38-3.24,15,15,0,0,1-2.43-21.06L359.52,178.09a15.12,15.12,0,0,1,21.14-2.4,14.89,14.89,0,0,1,2.44,21L227.46,391.48A15,15,0,0,1,215.67,397.14ZM448.38,261.66,292.72,456.41a15,15,0,0,1-23.59-18.64L424.8,243a15.12,15.12,0,0,1,21.14-2.43A15,15,0,0,1,448.38,261.66Z"/><path class="cls-2" d="M772.72,692l-3.36-3.35L688,769.55l2,2,21.57,21.42c13.81,13.77,43.22,6.81,65.7-15.51s29.45-51.61,15.63-65.35L772.75,692Z"/><path class="cls-2" d="M316.89,0C141.87,0,0,141.15,0,315.24s141.87,315.2,316.89,315.2a316.41,316.41,0,0,0,175.37-52.7L668.13,750.05l81.33-80.84L574.74,498.05a312.23,312.23,0,0,0,59.08-182.81C633.82,141.15,492,0,316.89,0Zm4.33,536.88c-123.05,0-222.83-99.22-222.83-221.64S198.17,93.6,321.22,93.6s222.84,99.21,222.84,221.64S444.3,536.88,321.22,536.88Z"/><path class="cls-3" d="M367.87,143.3,173.29,386.73a18.74,18.74,0,0,0,3,26.34,19.07,19.07,0,0,0,11.72,4A18.77,18.77,0,0,0,202.8,410L397.35,166.59a18.63,18.63,0,0,0-3.05-26.29A18.91,18.91,0,0,0,367.87,143.3Z"/><path class="cls-3" d="M449.47,224.46,254.88,467.9a18.69,18.69,0,0,0,3.05,26.33,19.08,19.08,0,0,0,11.71,4,18.82,18.82,0,0,0,14.72-7.07L479,247.76a18.7,18.7,0,0,0-3.05-26.33A18.89,18.89,0,0,0,449.47,224.46Z"/><path class="cls-3" d="M754.34,659.45l-96,95.41a4,4,0,0,0,0,5.69l19.16,18.78a4,4,0,0,0,5.62,0l96-95.49a4,4,0,0,0,0-5.67l0,0-.08,0L760,659.44A4,4,0,0,0,754.34,659.45Z"/><path class="cls-3" d="M254,886.3a21.79,21.79,0,0,1,3.4,6.15,20.17,20.17,0,0,1,1.2,6.85,19.75,19.75,0,0,1-1.65,8.05,20.91,20.91,0,0,1-4.5,6.55,21.87,21.87,0,0,1-6.6,4.45,19.75,19.75,0,0,1-8,1.65H191.3V852.7h46.5a19.75,19.75,0,0,1,8,1.65,21.87,21.87,0,0,1,6.6,4.45,20.91,20.91,0,0,1,4.5,6.55,19.75,19.75,0,0,1,1.65,8,20.62,20.62,0,0,1-4.6,12.9Zm-11-12.9a5.29,5.29,0,0,0-5.2-5.2h-31v10.4h31a5.12,5.12,0,0,0,5.2-5.2Zm0,25.9a5.12,5.12,0,0,0-5.2-5.2h-31v10.4h31a5.12,5.12,0,0,0,5.2-5.2Z"/><path class="cls-3" d="M326,852.8V889a30,30,0,0,1-2.45,12,31.21,31.21,0,0,1-16.5,16.5,30.86,30.86,0,0,1-24.1,0,32,32,0,0,1-9.9-6.65,31,31,0,0,1-6.7-9.85,30,30,0,0,1-2.45-12V852.8h15.6V889a15.5,15.5,0,1,0,31,0V852.8Z"/><path class="cls-3" d="M399.5,852.7v15.5H352.9a5.2,5.2,0,1,0,0,10.4h25.9A19.82,19.82,0,0,1,386,880a22.08,22.08,0,0,1,6.25,3.65,21,21,0,0,1,4.65,5.55,18.45,18.45,0,0,1,2.4,7c.07.53.12,1.07.15,1.6s.05,1.07.05,1.6a19.75,19.75,0,0,1-1.65,8.05,21.11,21.11,0,0,1-11,11A19.75,19.75,0,0,1,378.8,920H332.2V904.5h46.6a5.2,5.2,0,0,0,0-10.4H352.9a19.75,19.75,0,0,1-8-1.65,21.11,21.11,0,0,1-11-11,20.46,20.46,0,0,1,0-16.1,21.11,21.11,0,0,1,11-11,19.75,19.75,0,0,1,8-1.65Z"/><path class="cls-3" d="M462.3,904.5V920H436.5a30.29,30.29,0,0,1-12.15-2.45,31.21,31.21,0,0,1-16.5-16.5,30.29,30.29,0,0,1-2.45-12.15v-5.1a30.36,30.36,0,0,1,2.45-12.1,31.08,31.08,0,0,1,16.5-16.55,30.29,30.29,0,0,1,12.15-2.45h25.8v15.5H436.5a15,15,0,0,0-6.05,1.25,15.79,15.79,0,0,0-8.3,8.3,15,15,0,0,0-1.25,6v5.1a15,15,0,0,0,1.25,6.05,15.79,15.79,0,0,0,8.3,8.3,15,15,0,0,0,6.05,1.25h25.8Z"/><path class="cls-3" d="M535.4,852.7V920H519.8V904.5H483.6V920H468.1V883.8a30,30,0,0,1,2.45-12,32,32,0,0,1,6.65-9.9,31,31,0,0,1,9.85-6.7,30,30,0,0,1,12.05-2.45ZM519.8,889V868.3H499.1a14.63,14.63,0,0,0-6,1.25,16.07,16.07,0,0,0-8.25,8.25,14.63,14.63,0,0,0-1.25,6V889Z"/><path class="cls-3" d="M608.7,904.4V920H593.2V904.4a4.8,4.8,0,0,0-1.55-3.65A5.16,5.16,0,0,0,588,899.3H556.9V920H541.4V852.7H588a19.79,19.79,0,0,1,8,1.65,21.11,21.11,0,0,1,11,11,19.75,19.75,0,0,1,1.65,8v5.2a20.62,20.62,0,0,1-4.6,12.9,20.62,20.62,0,0,1,4.6,12.9Zm-15.5-25.8v-5.2a5.12,5.12,0,0,0-5.2-5.2H556.9v15.5H588a5.16,5.16,0,0,0,3.65-1.45A4.8,4.8,0,0,0,593.2,878.6Z"/></g></g></svg>