<svg xmlns="http://www.w3.org/2000/svg" viewBox="0 0 800 920"><defs><style>.cls-1{fill:#4682b4;}.cls-2{fill:#4d4d4d;}</style></defs><g id="Camada_2" data-name="Camada 2"><g id="Object"><path class="cls-1" d="M49.64,347.8a7.33,7.33,0,0,0,7.22,8.5h48.68a7.2,7.2,0,0,0,7-5.88c22.64-115,114.57-206.1,230.83-228.69a7.18,7.18,0,0,0,5.87-7.07V66.2a7.32,7.32,0,0,0-8.42-7.27C191.75,83.66,74.36,200.16,49.64,347.8Z"/><path class="cls-1" d="M694.17,447a7.18,7.18,0,0,0-7.06,6C666.68,572.46,572.07,667.24,452,689.21a7.19,7.19,0,0,0-5.95,7.08V744.8a7.32,7.32,0,0,0,8.35,7.27c153.32-23.8,273.73-144.25,295.93-296.69a7.33,7.33,0,0,0-7.26-8.34Z"/><path class="cls-2" d="M581.77,447a7.21,7.21,0,0,0-6.92,5.36c-16.57,59.84-63.72,107.49-123.62,125.4a7.24,7.24,0,0,0-5.19,6.91v48.68a7.29,7.29,0,0,0,8.81,7.18C546.7,619.32,618,547.46,637.71,455.82a7.32,7.32,0,0,0-7.16-8.78Z"/><path class="cls-1" d="M398.74,800h0a30.35,30.35,0,0,0,30.45-30.29V531.27A130.31,130.31,0,0,0,526,435.36L769.44,435A30.54,30.54,0,0,0,800,404.56,30,30,0,0,0,791,383a30.46,30.46,0,0,0-21.61-8.82L526,374.68a129.88,129.88,0,0,0-96.8-95.63V30.25a30.48,30.48,0,0,0-61,.15V279.14C320.49,290.52,283,327.68,271.59,375l-241.21.48A30.4,30.4,0,0,0,0,405.81a30.34,30.34,0,0,0,30.44,30.25l241.16-.38a130,130,0,0,0,96.65,95.62V769.67A30.47,30.47,0,0,0,398.74,800ZM306.31,406.92c0-52,42-94.15,93.69-94.15s93.68,42.15,93.68,94.15S451.74,501.06,400,501.06,306.31,458.92,306.31,406.92Z"/><path class="cls-1" d="M454.36,58.17A7.34,7.34,0,0,0,446,65.46v48.47a7.21,7.21,0,0,0,6,7.08C570.43,142.36,664.1,234.63,686.25,351.65a7.15,7.15,0,0,0,7,5.94h49.06a7.32,7.32,0,0,0,7.23-8.44C725.54,199.1,606,81.32,454.36,58.17Z"/><path class="cls-2" d="M446,176.8v48.74a7.23,7.23,0,0,0,5.21,6.92c58.17,17.24,104.29,62.6,122,120a7.2,7.2,0,0,0,6.85,5.16h49.29a7.3,7.3,0,0,0,7.11-8.92c-21.27-89.1-91.64-158.45-181.71-179A7.29,7.29,0,0,0,446,176.8Z"/><path class="cls-2" d="M224.41,457.4a7.2,7.2,0,0,0-6.86-5.17h-49a7.31,7.31,0,0,0-7.13,8.89c21.21,89.67,92.18,159.5,183,179.84a7.29,7.29,0,0,0,8.76-7.18V585.25a7.21,7.21,0,0,0-5.27-6.92C289,561.32,242.19,515.42,224.41,457.4Z"/><path class="cls-1" d="M112.17,458.17a7.18,7.18,0,0,0-7-5.94H56.36a7.33,7.33,0,0,0-7.24,8.42C73,610.94,192.83,729.23,344.82,752.28a7.32,7.32,0,0,0,8.34-7.27V696.55a7.18,7.18,0,0,0-6-7.09C228.29,668.27,134.17,575.56,112.17,458.17Z"/><path class="cls-2" d="M340.39,170.41c-88.06,21.5-156.88,89.69-178.49,176.91a7.3,7.3,0,0,0,7.1,9h49.31a7.24,7.24,0,0,0,6.84-5.08c17.89-55.78,62.62-100.06,119-117.84a7.18,7.18,0,0,0,5.11-6.88V177.57A7.29,7.29,0,0,0,340.39,170.41Z"/><path class="cls-2" d="M340.28,406.92a59.72,59.72,0,1,0,59.72-60A59.86,59.86,0,0,0,340.28,406.92Z"/><path class="cls-2" d="M306.55,904.5V920h-25.8a30.29,30.29,0,0,1-12.15-2.45,31.21,31.21,0,0,1-16.5-16.5,30.29,30.29,0,0,1-2.45-12.15v-5.1a30.36,30.36,0,0,1,2.45-12.1,31.08,31.08,0,0,1,16.5-16.55,30.29,30.29,0,0,1,12.15-2.45h25.8v15.5h-25.8a15,15,0,0,0-6.05,1.25,15.79,15.79,0,0,0-8.3,8.3,15,15,0,0,0-1.25,6v5.1A15,15,0,0,0,266.4,895a15.79,15.79,0,0,0,8.3,8.3,15,15,0,0,0,6.05,1.25h25.8Z"/><path class="cls-2" d="M380.45,904.4V920H365V904.4a4.8,4.8,0,0,0-1.55-3.65,5.15,5.15,0,0,0-3.65-1.45h-31.1V920h-15.5V852.7h46.6a19.75,19.75,0,0,1,8.05,1.65,21.11,21.11,0,0,1,11,11,19.75,19.75,0,0,1,1.65,8v5.2a20.62,20.62,0,0,1-4.6,12.9,20.62,20.62,0,0,1,4.6,12.9ZM365,878.6v-5.2a5.12,5.12,0,0,0-5.2-5.2h-31.1v15.5h31.1a5.15,5.15,0,0,0,3.65-1.45A4.8,4.8,0,0,0,365,878.6Z"/><path class="cls-2" d="M387.65,920V852.7h15.6V920Z"/><path class="cls-2" d="M477.05,852.7V920h-15.6V904.5h-36.2V920h-15.5V883.8a29.85,29.85,0,0,1,2.45-12,32,32,0,0,1,6.65-9.9,31,31,0,0,1,9.85-6.7,30,30,0,0,1,12.05-2.45ZM461.45,889V868.3h-20.7a14.63,14.63,0,0,0-6,1.25,16.07,16.07,0,0,0-8.25,8.25,14.63,14.63,0,0,0-1.25,6V889Z"/><path class="cls-2" d="M550.35,904.4V920h-15.5V904.4a4.8,4.8,0,0,0-1.55-3.65,5.16,5.16,0,0,0-3.65-1.45h-31.1V920h-15.5V852.7h46.6a19.79,19.79,0,0,1,8.05,1.65,21.11,21.11,0,0,1,11,11,19.75,19.75,0,0,1,1.65,8v5.2a20.17,20.17,0,0,1-1.2,6.85,20.57,20.57,0,0,1-3.4,6,20.57,20.57,0,0,1,3.4,6A20.17,20.17,0,0,1,550.35,904.4Zm-15.5-25.8v-5.2a5.12,5.12,0,0,0-5.2-5.2h-31.1v15.5h31.1a5.16,5.16,0,0,0,3.65-1.45A4.8,4.8,0,0,0,534.85,878.6Z"/></g></g></svg>