<svg xmlns="http://www.w3.org/2000/svg" viewBox="0 0 400 161.71"><defs><style>.cls-1{fill:#4d4d4d;}</style></defs><g id="Camada_2" data-name="Camada 2"><g id="Object"><path class="cls-1" d="M55.87,66.19a44.51,44.51,0,0,1-14-2.22,29,29,0,0,1-10.52-5.92l3.39-7.21a28.51,28.51,0,0,0,9.32,5.46,35.31,35.31,0,0,0,11.79,2q8,0,11.88-2.68a8.54,8.54,0,0,0,3.93-7.3A7,7,0,0,0,69.49,43a13.55,13.55,0,0,0-5.3-3.24q-3.11-1.11-8.87-2.5a94.11,94.11,0,0,1-11.7-3.51A20,20,0,0,1,36,28.38q-3.12-3.7-3.11-9.89a17,17,0,0,1,2.65-9.34A18.89,18.89,0,0,1,43.8,2.5,32.78,32.78,0,0,1,57.42,0,42.42,42.42,0,0,1,68.57,1.48,29.56,29.56,0,0,1,78,5.73l-3,7.4a31.84,31.84,0,0,0-8.59-3.89,30.9,30.9,0,0,0-9-1.38q-7.77,0-11.7,2.86a8.83,8.83,0,0,0-3.83,7.4,7.25,7.25,0,0,0,2.19,5.45,16.11,16.11,0,0,0,5.39,3.24c2.2.74,5.15,1.54,8.87,2.4A89.12,89.12,0,0,1,70,32.72a19.22,19.22,0,0,1,7.49,5.37q3.19,3.6,3.2,9.7a17,17,0,0,1-2.74,9.34,18.8,18.8,0,0,1-8.32,6.65A34.52,34.52,0,0,1,55.87,66.19Zm84.55-8.78v8H94V.74h45.15v8h-36V28.66h32.08v7.85H103.13v20.9ZM196,49.27H162l-7,16.18h-9.42l29-64.71h9.05l29.06,64.71H203Zm-3.2-7.39L179,10.17l-13.8,31.71Zm82.8,24.31a35.8,35.8,0,0,1-17.45-4.25A32.34,32.34,0,0,1,245.89,50a33.09,33.09,0,0,1-4.39-16.92,33.08,33.08,0,0,1,4.39-16.91A31.52,31.52,0,0,1,258.14,4.35a37,37,0,0,1,34.82,0,30.88,30.88,0,0,1,12.16,11.83,32.86,32.86,0,0,1,4.38,16.91,33.36,33.36,0,0,1-4.38,17A31.88,31.88,0,0,1,293,61.94,35.63,35.63,0,0,1,275.59,66.19Zm0-8.23a24.65,24.65,0,0,0,12.62-3.24,23.16,23.16,0,0,0,8.86-8.87,25.09,25.09,0,0,0,3.29-12.76,24.59,24.59,0,0,0-3.29-12.66,23.08,23.08,0,0,0-8.86-9,24.74,24.74,0,0,0-12.62-3.23,25.72,25.72,0,0,0-12.79,3.23,23.82,23.82,0,0,0-9,9,25.23,25.23,0,0,0-3.2,12.66,25.75,25.75,0,0,0,3.2,12.76,23.91,23.91,0,0,0,9,8.87A25.63,25.63,0,0,0,275.59,58Zm57-49.18V31.34h32.08v8H332.61V65.45h-9.14V.74h45.16v8Z"/><path class="cls-1" d="M43.05,127.41a15.7,15.7,0,0,1,12,16.08q0,8.41-6.3,12.95T30.53,161H0V96.26H28.7q11,0,16.91,4.43a14.42,14.42,0,0,1,6,12.3,15.82,15.82,0,0,1-2.38,8.78A14.84,14.84,0,0,1,43.05,127.41ZM9.14,103.75v20.7H27.88q7,0,10.78-2.59a8.86,8.86,0,0,0,3.84-7.76,8.64,8.64,0,0,0-3.84-7.67q-3.75-2.69-10.78-2.68Zm21,49.73q7.77,0,11.7-2.59t3.93-8.14q0-10.81-15.63-10.81h-21v21.54Zm79.78-8.69h-34L68.9,161H59.49l29-64.71h9.05L126.57,161H117Zm-3.2-7.4-13.8-31.7-13.8,31.7Zm38.87-33.09H123.67v-8h52.92v8H154.66V161h-9Zm54.54,0H178.21v-8h52.92v8H209.19V161h-9Zm40.94-8h9.14v56.66h34.64V161H241.09Zm100.7,56.66V161H295.35V96.26h45.16v8h-36v19.87h32.09V132H304.49v20.89Zm33.44,8.79a44.55,44.55,0,0,1-14-2.22,29,29,0,0,1-10.51-5.92l3.38-7.21a28.32,28.32,0,0,0,9.32,5.45,35.07,35.07,0,0,0,11.79,2q7.95,0,11.88-2.68a8.56,8.56,0,0,0,3.93-7.31,7,7,0,0,0-2.19-5.36,13.65,13.65,0,0,0-5.3-3.23q-3.1-1.11-8.87-2.5a94.11,94.11,0,0,1-11.7-3.51,20,20,0,0,1-7.58-5.36q-3.11-3.7-3.11-9.89a17,17,0,0,1,2.65-9.34A19,19,0,0,1,363.17,98a32.87,32.87,0,0,1,13.61-2.49A42.55,42.55,0,0,1,387.94,97a29.38,29.38,0,0,1,9.41,4.25l-3,7.39a31.81,31.81,0,0,0-8.59-3.88,30.9,30.9,0,0,0-9-1.38q-7.75,0-11.69,2.86a8.84,8.84,0,0,0-3.84,7.4,7.28,7.28,0,0,0,2.19,5.45,16.28,16.28,0,0,0,5.39,3.24c2.2.74,5.15,1.54,8.87,2.4a89.12,89.12,0,0,1,11.61,3.51,19.2,19.2,0,0,1,7.49,5.36q3.19,3.61,3.2,9.71a16.89,16.89,0,0,1-2.74,9.34,18.8,18.8,0,0,1-8.32,6.65A34.7,34.7,0,0,1,375.23,161.71Z"/></g></g></svg>