<svg xmlns="http://www.w3.org/2000/svg" viewBox="0 0 350 350"><defs><style>.cls-1{isolation:isolate;}.cls-2{fill:#b34731;}.cls-3{fill:#2e2b2c;}.cls-3,.cls-5{opacity:0.2;mix-blend-mode:multiply;}.cls-4,.cls-5{fill:#9d2f0d;}.cls-6{fill:#e0e0e0;}.cls-7{fill:#cecece;}.cls-8{fill:#bfbfbf;}.cls-9{fill:#ea6f00;}.cls-10{fill:#ff9c00;}.cls-11{fill:#afafaf;}.cls-12{fill:#84827f;}.cls-13{fill:#ffb400;}.cls-14{fill:#ce5a02;}</style></defs><g class="cls-1"><g id="DESIGNED_BY_FREEPIK" data-name="DESIGNED BY FREEPIK"><path class="cls-2" d="M117,278.62s-2.54,17.92,13.63,41.71c0,0,4.12-13,4.12-12.05s8.16,19.34,40.24,33.93c32.08-14.59,40.24-33,40.24-33.93s4.12,12.05,4.12,12.05C235.54,296.54,233,278.62,233,278.62c6.4,2.85,12.56,9.28,12.56,9.28,3.56-24.74-10.43-59.23-10.43-59.23s-.95,18.55-8.54,19.74a8.55,8.55,0,0,1-9.72-5.71S214.5,251,202.16,251s-7.58-5.95-14.7-11.42c-4-3.05-21-3.05-24.92,0-7.11,5.47-2.37,11.42-14.7,11.42s-14.7-8.33-14.7-8.33a8.56,8.56,0,0,1-9.73,5.71c-7.59-1.19-8.54-19.74-8.54-19.74s-14,34.49-10.43,59.23C104.44,287.9,110.6,281.47,117,278.62ZM175,246c17.52,0,7.9,15,25.57,16.84,0,0-.07,23.12-9.72,26.4-6.47,2.19-12.76.76-15.85-7.08-3.1,9.08-9.13,9.64-15.84,7.08s-9.73-26.4-9.73-26.4C167.2,261.26,157.48,246,175,246Z"/><path class="cls-2" d="M235.46,208.67c2.63,25.3-7.89,41.4-7.89,41.4l.09-15.12s-6.62,20.38-19.23,20.38c-17.2,0-33.75-6.33-33.75-6.33s-15.83,6.33-33,6.33c-12.61,0-19.35-20.5-19.35-20.5l.13,15.24s-10.52-16.1-7.89-41.4c0,0-23.33,44-5.59,84.77l2.63-6.9s1.65,11.83,23.33,23.66l-2.3-7.23s4.6,12.82,42.39,29.58C212.79,315.79,217.39,303,217.39,303l-2.3,7.23c21.68-11.83,23.33-23.66,23.33-23.66l2.63,6.9C258.79,252.7,235.46,208.67,235.46,208.67Zm-38.77,73.6C194.11,292,175,294.1,175,294.1s-19.11-2.08-21.69-11.83c-2.05-7.77-2.3-19.06-2.3-19.06l24-8.54,24,8.54S198.74,274.5,196.69,282.27Z"/><path class="cls-3" d="M209,262c-11.92,3.13-21.35-4.11-21.35-4.11s3.28,4.11,6.73,5.75c0,0-14.63-.13-19.39-14.81-4.75,14.68-19.39,14.81-19.39,14.81,3.45-1.64,6.74-5.75,6.74-5.75S152.91,265.11,141,262c-7.68-2-13.68-14.38-17-22.93a1.54,1.54,0,0,1-.12-.15S129.07,267,141,270.11,162.35,266,162.35,266s-3.29,4.11-6.74,5.75c0,0,14.64-.12,19.39-14.81,4.76,14.69,19.39,14.81,19.39,14.81-3.45-1.64-6.73-5.75-6.73-5.75s9.43,7.24,21.35,4.11S226.1,238.9,226.1,238.9C222.79,247.45,216.74,260,209,262Z"/><path class="cls-4" d="M174.68,107.79c-60.32,0-69.28,36.47-68.93,46s6.55,51.59,6.55,51.59,3.44-32.53,14.13-47.32,28.26-4.6,36.87.66,11.38,3.94,11.38,3.94,2.75,1.32,11.37-3.94,26.19-15.45,36.88-.66,14.13,47.32,14.13,47.32,6.2-42.06,6.55-51.59S235,107.79,174.68,107.79Z"/><path class="cls-5" d="M228.87,150.85c-10.36-14.33-26.48-7.77-36.92-1.91-16.21,9.29-29.52-1.56-38.23-8.46s-20.7-4.11-20.7-4.11c8.22,1.32,15.35,8.22,15.35,8.22h0c-9.5-3.67-20.51-4.66-27.91,6.25-12.24,18.05-8.18,37.28-8.18,54.53,0,0,3.44-32.53,14.13-47.32s28.26-4.6,36.87.66,11.38,3.94,11.38,3.94,2.75,1.32,11.37-3.94,26.19-15.45,36.88-.66,14.13,47.32,14.13,47.32C238.83,179.75,234.82,159.08,228.87,150.85Z"/><path class="cls-4" d="M204.25,248.42A23.09,23.09,0,0,0,185,242.71c2.62-1.44,5.75-3,5.75-3-6.85-.74-13.05,3-15.78,4.94-2.73-2-8.93-5.68-15.78-4.94,0,0,3.13,1.55,5.75,3a23.09,23.09,0,0,0-19.22,5.71c-9.2,8.06-21.85-9.52-21.85-9.52S129.07,267,141,270.11,162.35,266,162.35,266s-3.29,4.11-6.74,5.75c0,0,14.64-.12,19.39-14.81,4.76,14.69,19.39,14.81,19.39,14.81-3.45-1.64-6.73-5.75-6.73-5.75s9.43,7.24,21.35,4.11S226.1,238.9,226.1,238.9,213.45,256.48,204.25,248.42Z"/><path class="cls-4" d="M225.24,264.59s7.76,14-5.88,36.71c0,0-4.12-13-4.12-12.05S207.08,308.6,175,323.18c-32.08-14.58-40.24-33-40.24-33.93s-4.12,12.05-4.12,12.05a64.15,64.15,0,0,1-8.4-40.28c-6.43,7.13-11.59,9.73-17.8,26.88h0s4.47-2.17,10.87-5c0,0-.84,13.67,15.33,37.46,0,0,4.12-13,4.12-12.05s8.16,19.34,40.24,33.93c32.08-14.59,40.24-33,40.24-33.93s4.12,12.05,4.12,12.05c16.18-23.79,15.53-37.74,15.53-37.74,6.4,2.86,10.67,5.31,10.67,5.31h0S238.08,269.1,225.24,264.59Z"/><path class="cls-4" d="M241.05,282.11l-2.63-6.9s-1.65,11.82-23.33,23.65l2.3-7.22s-4.6,12.81-42.39,29.57c-37.79-16.76-42.39-29.57-42.39-29.57l2.3,7.22c-21.68-11.83-23.33-23.65-23.33-23.65l-2.63,6.9a81.5,81.5,0,0,1-6.49-27.85c-.7,12.32.72,25.93,6.49,39.18l2.63-6.9s1.65,11.83,23.33,23.66l-2.3-7.23s4.6,12.82,42.39,29.58C212.79,315.79,217.39,303,217.39,303l-2.3,7.23c21.68-11.83,23.33-23.66,23.33-23.66l2.63,6.9c5.77-13.25,7.19-26.86,6.49-39.18A81.5,81.5,0,0,1,241.05,282.11Z"/><path class="cls-6" d="M225.64,87.5s68.89-13.13,55.47-79.71c30.56,30.43,28,93.64-37.14,110.32C239,119.39,225.64,87.5,225.64,87.5Z"/><path class="cls-7" d="M285,12c12.85,60.72-41.53,81.71-54.68,85.85,4.34,9.18,10.6,21,13.69,20.25C306.21,102.17,311.31,43.73,285,12Z"/><path class="cls-8" d="M297.74,37c-4.47,57.17-45.47,70.11-61.2,73,2.88,4.93,5.67,8.59,7.43,8.14C292.05,105.79,306,68.13,297.74,37Z"/><path class="cls-6" d="M124.36,87.5S55.47,74.37,68.89,7.79c-30.56,30.43-28,93.64,37.14,110.32C111,119.39,124.36,87.5,124.36,87.5Z"/><path class="cls-7" d="M65,12c-12.85,60.72,41.53,81.71,54.68,85.85-4.33,9.18-10.6,21-13.69,20.25C43.79,102.17,38.69,43.73,65,12Z"/><path class="cls-8" d="M52.26,37c4.47,57.17,45.47,70.11,61.2,73-2.88,4.93-5.67,8.59-7.43,8.14C58,105.79,44,68.13,52.26,37Z"/><path class="cls-9" d="M236.11,128l8.47-5.06a6.29,6.29,0,0,0,2.17-8.61L230.3,86.8a6.29,6.29,0,0,0-8.6-2.17l-8.47,5.06Z"/><path class="cls-10" d="M222.16,84.41,245,122.65a6.29,6.29,0,0,0,1.76-8.31L230.3,86.8A6.27,6.27,0,0,0,222.16,84.41Z"/><path class="cls-9" d="M113.89,128,105.42,123a6.29,6.29,0,0,1-2.17-8.61L119.7,86.8a6.29,6.29,0,0,1,8.6-2.17l8.47,5.06Z"/><path class="cls-10" d="M127.84,84.41,105,122.65a6.28,6.28,0,0,1-1.76-8.31L119.7,86.8A6.27,6.27,0,0,1,127.84,84.41Z"/><path class="cls-11" d="M175,76.14c-36.75,0-66.54,31-66.54,69.26H241.54C241.54,107.15,211.75,76.14,175,76.14Z"/><path class="cls-12" d="M235,152.6a50.43,50.43,0,0,0,.54-7.2c0-30-27.11-54.26-60.55-54.26s-60.55,24.29-60.55,54.26a49,49,0,0,0,.55,7.2Z"/><path class="cls-9" d="M160.87,77.72V145.4h28.25V77.72a63.93,63.93,0,0,0-28.25,0Z"/><path class="cls-10" d="M165.58,76.85V145.4h18.84V76.85a62.85,62.85,0,0,0-18.84,0Z"/><rect class="cls-9" x="103" y="142.59" width="144" height="28.25" rx="6.28"/><path class="cls-13" d="M240.72,142.59H109.28a6.3,6.3,0,0,0-6.28,6.28v3.73H247v-3.73A6.3,6.3,0,0,0,240.72,142.59Z"/><path class="cls-10" d="M103,148.87v15.7a6.33,6.33,0,0,0,.22,1.57H246.78a6.33,6.33,0,0,0,.22-1.57v-15.7a6.33,6.33,0,0,0-.22-1.57H103.22A6.33,6.33,0,0,0,103,148.87Z"/><path class="cls-14" d="M118.69,156.72a4.9,4.9,0,1,1-4.9-4.91A4.9,4.9,0,0,1,118.69,156.72Z"/><path class="cls-13" d="M116.34,156.72a2.55,2.55,0,1,1-2.55-2.55A2.55,2.55,0,0,1,116.34,156.72Z"/><path class="cls-14" d="M241.11,156.72a4.9,4.9,0,1,1-4.9-4.91A4.9,4.9,0,0,1,241.11,156.72Z"/><path class="cls-13" d="M238.76,156.72a2.55,2.55,0,1,1-2.55-2.55A2.55,2.55,0,0,1,238.76,156.72Z"/><path class="cls-14" d="M223.63,156.72a4.91,4.91,0,1,1-4.91-4.91A4.9,4.9,0,0,1,223.63,156.72Z"/><path class="cls-13" d="M221.27,156.72a2.55,2.55,0,1,1-2.55-2.55A2.55,2.55,0,0,1,221.27,156.72Z"/><path class="cls-14" d="M206.14,156.72a4.91,4.91,0,1,1-4.91-4.91A4.9,4.9,0,0,1,206.14,156.72Z"/><path class="cls-13" d="M203.78,156.72a2.55,2.55,0,1,1-2.55-2.55A2.55,2.55,0,0,1,203.78,156.72Z"/><path class="cls-14" d="M188.65,156.72a4.91,4.91,0,1,1-4.91-4.91A4.9,4.9,0,0,1,188.65,156.72Z"/><path class="cls-13" d="M186.29,156.72a2.55,2.55,0,1,1-2.55-2.55A2.55,2.55,0,0,1,186.29,156.72Z"/><path class="cls-14" d="M171.16,156.72a4.91,4.91,0,1,1-4.9-4.91A4.9,4.9,0,0,1,171.16,156.72Z"/><path class="cls-13" d="M168.81,156.72a2.56,2.56,0,1,1-2.55-2.55A2.55,2.55,0,0,1,168.81,156.72Z"/><path class="cls-14" d="M153.67,156.72a4.91,4.91,0,1,1-4.9-4.91A4.9,4.9,0,0,1,153.67,156.72Z"/><path class="cls-13" d="M151.32,156.72a2.55,2.55,0,1,1-2.55-2.55A2.55,2.55,0,0,1,151.32,156.72Z"/><path class="cls-14" d="M136.18,156.72a4.91,4.91,0,1,1-4.9-4.91A4.9,4.9,0,0,1,136.18,156.72Z"/><path class="cls-13" d="M133.83,156.72a2.55,2.55,0,1,1-2.55-2.55A2.55,2.55,0,0,1,133.83,156.72Z"/><path class="cls-14" d="M175,78.58a4.91,4.91,0,1,1-4.9,4.91A4.91,4.91,0,0,1,175,78.58Z"/><path class="cls-13" d="M175,80.94a2.55,2.55,0,1,1-2.55,2.55A2.55,2.55,0,0,1,175,80.94Z"/><path class="cls-14" d="M175,96.07a4.91,4.91,0,1,1-4.9,4.9A4.91,4.91,0,0,1,175,96.07Z"/><path class="cls-13" d="M175,98.42a2.55,2.55,0,1,1-2.55,2.55A2.55,2.55,0,0,1,175,98.42Z"/><path class="cls-14" d="M175,113.56a4.91,4.91,0,1,1-4.9,4.91A4.91,4.91,0,0,1,175,113.56Z"/><path class="cls-13" d="M175,115.92a2.55,2.55,0,1,1-2.55,2.55A2.55,2.55,0,0,1,175,115.92Z"/><path class="cls-14" d="M175,131.05a4.91,4.91,0,1,1-4.9,4.9A4.9,4.9,0,0,1,175,131.05Z"/><path class="cls-13" d="M175,133.4a2.55,2.55,0,1,1-2.55,2.55A2.55,2.55,0,0,1,175,133.4Z"/></g></g></svg>